# xmcd
#
# Track frame offsets: 
#        150
#        24177
#        40282
#        58602
#        75277
#        100767
#        119225
#        141012
#        157066
#        177865
#        192860
#        213898
#        233686
#        248869
#        269457
#        286778
#
# Disc length: 4187 seconds
#
# Revision: 0
# Processed by: cddbd v1.5.2PL0 Copyright (c) Steve Scherf et al.
# Submitted via: ExactAudioCopy v0.99pb5
#
DISCID=d6105910
DTITLE=Queens Of The Stone Age - Era Vulgaris (Canadian Limited Tour E
DTITLE=dition)
DYEAR=2008
DGENRE=Blues
TTITLE0=Turnin On The Screw
TTITLE1=Sick, Sick, Sick
TTITLE2=I'm Designer
TTITLE3=Into The Hollow
TTITLE4=Misfit Love
TTITLE5=Battery Acid
TTITLE6=Make It Wit Chu
TTITLE7=3's and 7's
TTITLE8=Suture Up Your Future
TTITLE9=River In The Road
TTITLE10=Run, Pig, Run
TTITLE11=Christian Brothers
TTITLE12=Needles In The Camel's Eye
TTITLE13=Make It Wit Chu (live acoustic)
TTITLE14=White Wedding
TTITLE15=Era Vulgaris (Richard File remix)
EXTD=
EXTT0=
EXTT1=
EXTT2=
EXTT3=
EXTT4=
EXTT5=
EXTT6=
EXTT7=
EXTT8=
EXTT9=
EXTT10=
EXTT11=
EXTT12=
EXTT13=
EXTT14=
EXTT15=
PLAYORDER=
